<?xml version="1.0" encoding="UTF-8"?>
<!DOCTYPE svg PUBLIC "-//W3C//DTD SVG 1.1//EN" "http://www.w3.org/Graphics/SVG/1.1/DTD/svg11.dtd">
<!-- Creator: CorelDRAW 2021.5 -->
<svg xmlns="http://www.w3.org/2000/svg" xml:space="preserve" width="124px" height="80px" version="1.1" style="shape-rendering:geometricPrecision; text-rendering:geometricPrecision; image-rendering:optimizeQuality; fill-rule:evenodd; clip-rule:evenodd"
viewBox="0 0 8.82 5.69"
 xmlns:xlink="http://www.w3.org/1999/xlink"
 xmlns:xodm="http://www.corel.com/coreldraw/odm/2003">
 <defs>
  <style type="text/css">
   <![CDATA[
    .fil3 {fill:#FEFEFE;fill-rule:nonzero}
    .fil1 {fill:#FFC93B;fill-rule:nonzero}
    .fil4 {fill:#F1625C;fill-rule:nonzero}
    .fil2 {fill:#60C7D0;fill-rule:nonzero}
    .fil0 {fill:#764998;fill-rule:nonzero}
   ]]>
  </style>
 </defs>
 <g id="Layer_x0020_1">
  <metadata id="CorelCorpID_0Corel-Layer"/>
  <path class="fil0" d="M0.04 3.56l0 -0.02 -0.04 -0.7 0 0c-0.01,-0.46 0.15,-0.54 0.44,-0.55 0.06,0 0.13,0 0.21,0 0.06,0.01 0.12,0.01 0.19,0.01l0 0 0.08 0c0.09,0 0.17,0 0.28,-0.01l0.03 0 0 0.03 0.02 0.48 0 0.02 -0.03 0 -0.58 0 -0.01 0.38 0.48 -0.03 0.02 0 0 0.02 -0.01 0.45 0 0.02 -0.03 0 -0.48 -0.03 -0.02 0.49c-0.01,0.09 -0.01,0.19 -0.03,0.27 -0.01,0.07 -0.02,0.13 -0.04,0.17 -0.02,0.05 -0.05,0.08 -0.09,0.11 -0.04,0.03 -0.08,0.05 -0.13,0.06 -0.02,0.01 -0.05,0.01 -0.08,0.02 -0.04,0 -0.07,0 -0.11,0.01l-0.02 0 0 -0.03c-0.01,-0.14 -0.01,-0.29 -0.02,-0.44 -0.01,-0.25 -0.02,-0.5 -0.03,-0.73z"/>
  <path class="fil1" d="M5.11 0.7c0,-0.01 -0.01,-0.02 -0.01,-0.02 0,0 0,0.01 0,0.02 -0.06,-0.02 -0.12,-0.03 -0.18,-0.04 -0.34,-0.05 -0.68,-0.01 -1.02,0.08 -0.03,0.01 -0.07,0.02 -0.11,0.04 -0.04,0.01 -0.17,0.02 -0.06,-0.03 0.37,-0.14 0.73,-0.25 1.12,-0.27 0.56,-0.03 1.09,0.13 1.45,0.51 0.28,0.29 0.03,0.69 -0.37,0.21 -0.21,-0.26 -0.43,-0.4 -0.82,-0.5z"/>
  <path class="fil2" d="M7.43 0.36c-0.02,-0.02 -0.01,-0.03 0.01,-0.03 0,0 0.01,0 0.02,0.01 0.75,0.37 1.3,1.51 1.35,2.3 0.08,1.24 -0.64,2.42 -1.97,3.02 -0.02,0.01 -0.04,0.01 -0.04,-0.01 -0.01,-0.02 0,-0.03 0.02,-0.04 0.76,-0.57 1.32,-1.21 1.57,-2.19 0.05,-0.21 0.08,-0.43 0.08,-0.66 -0.03,-1.07 -0.39,-1.69 -1.04,-2.4z"/>
  <path class="fil0" d="M1.81 4.72l-0.01 0c-0.12,0 -0.23,-0.04 -0.32,-0.11 -0.1,-0.07 -0.17,-0.17 -0.22,-0.29 -0.05,-0.12 -0.07,-0.25 -0.07,-0.4l0 -0.02c0,-0.15 0.03,-0.28 0.09,-0.41 0.05,-0.12 0.13,-0.22 0.22,-0.29 0.1,-0.07 0.21,-0.11 0.33,-0.11 0.2,0.01 0.36,0.08 0.47,0.21 0.11,0.13 0.17,0.29 0.19,0.47 0.05,0 0.11,-0.02 0.16,-0.06 0.06,-0.03 0.1,-0.1 0.12,-0.21 0.01,-0.01 0.02,-0.02 0.03,-0.02l0 0.01c0.02,0 0.03,0.01 0.03,0.02 0.02,0.04 0.02,0.07 0.02,0.12 0,0.02 0,0.05 0,0.08 -0.05,0.17 -0.12,0.28 -0.21,0.34 -0.07,0.04 -0.13,0.06 -0.2,0.06 -0.04,0 -0.08,-0.01 -0.12,-0.02 -0.11,-0.03 -0.21,-0.09 -0.29,-0.18 -0.09,-0.09 -0.15,-0.2 -0.18,-0.32 -0.03,0.02 -0.05,0.06 -0.07,0.11 -0.02,0.06 -0.03,0.12 -0.04,0.19l0 0.07c0,0.05 0,0.09 0.01,0.13 0.01,0.06 0.03,0.11 0.05,0.15 0.03,0.04 0.07,0.06 0.11,0.06 0.06,0 0.1,-0.02 0.14,-0.07 0.03,-0.05 0.05,-0.12 0.07,-0.19 0.1,0.07 0.2,0.1 0.3,0.1l0.05 0c-0.04,0.17 -0.11,0.3 -0.23,0.41 -0.11,0.11 -0.25,0.17 -0.43,0.17z"/>
  <path class="fil0" d="M3.16 4.72l-0.01 0c-0.12,0 -0.23,-0.04 -0.32,-0.11 -0.09,-0.07 -0.16,-0.17 -0.21,-0.29 -0.05,-0.12 -0.08,-0.25 -0.08,-0.4l0 -0.02c0.01,-0.15 0.04,-0.28 0.09,-0.41 0.06,-0.12 0.13,-0.22 0.23,-0.29 0.09,-0.07 0.2,-0.11 0.32,-0.11 0.21,0.01 0.36,0.08 0.47,0.21 0.11,0.13 0.18,0.29 0.2,0.47 0.05,0 0.1,-0.02 0.16,-0.06 0.05,-0.03 0.09,-0.1 0.12,-0.21 0,-0.01 0.01,-0.02 0.02,-0.02l0.01 0.01c0.01,0 0.02,0.01 0.03,0.02 0.01,0.04 0.02,0.07 0.02,0.12 0,0.02 -0.01,0.05 -0.01,0.08 -0.05,0.17 -0.12,0.28 -0.21,0.34 -0.06,0.04 -0.13,0.06 -0.2,0.06 -0.04,0 -0.07,-0.01 -0.11,-0.02 -0.11,-0.03 -0.21,-0.09 -0.3,-0.18 -0.09,-0.09 -0.15,-0.2 -0.17,-0.32 -0.04,0.02 -0.06,0.06 -0.08,0.11 -0.02,0.06 -0.03,0.12 -0.03,0.19l-0.01 0.07c0,0.05 0,0.09 0.01,0.13 0.01,0.06 0.03,0.11 0.06,0.15 0.02,0.04 0.06,0.06 0.1,0.06 0.06,0 0.11,-0.02 0.14,-0.07 0.03,-0.05 0.06,-0.12 0.07,-0.19 0.1,0.07 0.2,0.1 0.31,0.1l0.04 0c-0.03,0.17 -0.11,0.3 -0.22,0.41 -0.11,0.11 -0.26,0.17 -0.44,0.17z"/>
  <path class="fil3" d="M0.78 5.42l-0.1 -0.38 -0.11 0.38c0,0.03 -0.01,0.05 -0.02,0.06 0,0.02 -0.01,0.03 -0.02,0.04 -0.01,0.01 -0.03,0.01 -0.05,0.01 -0.01,0 -0.03,0 -0.04,-0.01 -0.01,0 -0.02,-0.01 -0.02,-0.02 -0.01,-0.01 -0.01,-0.03 -0.02,-0.04 0,-0.02 0,-0.03 -0.01,-0.04l-0.1 -0.43c-0.01,-0.02 -0.01,-0.04 -0.01,-0.06 0,-0.01 0,-0.03 0.01,-0.04 0.02,-0.01 0.03,-0.01 0.05,-0.01 0.02,0 0.04,0 0.04,0.02 0.01,0.01 0.02,0.03 0.03,0.06l0.08 0.37 0.09 -0.34c0.01,-0.03 0.01,-0.05 0.02,-0.06 0.01,-0.02 0.01,-0.03 0.03,-0.04 0.01,-0.01 0.03,-0.01 0.05,-0.01 0.02,0 0.04,0 0.05,0.01 0.01,0.01 0.02,0.02 0.02,0.04 0.01,0.01 0.01,0.03 0.02,0.06l0.1 0.34 0.08 -0.37c0,-0.02 0.01,-0.03 0.01,-0.04 0,-0.01 0.01,-0.02 0.02,-0.03 0.01,-0.01 0.02,-0.01 0.04,-0.01 0.01,0 0.03,0 0.04,0.01 0.01,0.01 0.02,0.03 0.02,0.04 0,0.02 -0.01,0.03 -0.01,0.06l-0.11 0.43c-0.01,0.03 -0.01,0.05 -0.02,0.06 0,0.01 -0.01,0.03 -0.02,0.04 -0.01,0.01 -0.03,0.01 -0.05,0.01 -0.02,0 -0.03,0 -0.05,-0.01 -0.01,-0.01 -0.02,-0.02 -0.02,-0.04 0,-0.01 -0.01,-0.03 -0.02,-0.06z"/>
  <path class="fil3" d="M1.3 5.27l0.19 0 -0.1 -0.26 -0.09 0.26zm0.25 0.18l-0.03 -0.08 -0.26 0 -0.03 0.08c-0.01,0.03 -0.02,0.05 -0.03,0.06 -0.01,0.02 -0.02,0.02 -0.04,0.02 -0.02,0 -0.03,0 -0.04,-0.02 -0.01,-0.01 -0.02,-0.02 -0.02,-0.04 0,-0.01 0,-0.01 0,-0.02 0.01,-0.01 0.01,-0.03 0.02,-0.04l0.16 -0.41c0,-0.02 0.01,-0.03 0.02,-0.05 0,-0.01 0.01,-0.03 0.02,-0.04 0,-0.01 0.01,-0.02 0.03,-0.02 0.01,-0.01 0.02,-0.01 0.04,-0.01 0.02,0 0.03,0 0.05,0.01 0.01,0 0.02,0.01 0.02,0.02 0.01,0.01 0.02,0.02 0.02,0.04 0.01,0.01 0.01,0.02 0.02,0.05l0.17 0.4c0.01,0.04 0.02,0.06 0.02,0.07 0,0.02 -0.01,0.03 -0.02,0.04 -0.01,0.02 -0.03,0.02 -0.04,0.02 -0.01,0 -0.02,0 -0.03,0 -0.01,-0.01 -0.01,-0.01 -0.02,-0.02 0,0 -0.01,-0.01 -0.01,-0.03 -0.01,-0.01 -0.02,-0.02 -0.02,-0.03z"/>
  <path class="fil3" d="M2.1 4.99l-0.14 0 0 0.46c0,0.03 -0.01,0.05 -0.02,0.06 -0.01,0.02 -0.03,0.02 -0.05,0.02 -0.01,0 -0.03,0 -0.04,-0.02 -0.01,-0.01 -0.02,-0.03 -0.02,-0.06l0 -0.46 -0.14 0c-0.02,0 -0.04,0 -0.05,-0.01 -0.01,-0.01 -0.01,-0.02 -0.01,-0.04 0,-0.02 0,-0.03 0.01,-0.04 0.01,-0.01 0.03,-0.01 0.05,-0.01l0.41 0c0.02,0 0.04,0 0.05,0.01 0.01,0.01 0.01,0.02 0.01,0.04 0,0.02 0,0.03 -0.01,0.04 -0.01,0.01 -0.03,0.01 -0.05,0.01z"/>
  <path class="fil3" d="M2.64 4.99l-0.29 0 0 0.15 0.27 0c0.02,0 0.03,0.01 0.04,0.01 0.01,0.01 0.02,0.02 0.02,0.04 0,0.01 -0.01,0.03 -0.02,0.03 -0.01,0.01 -0.02,0.02 -0.04,0.02l-0.27 0 0 0.18 0.3 0c0.02,0 0.04,0 0.05,0.01 0.01,0.01 0.01,0.02 0.01,0.04 0,0.02 0,0.03 -0.01,0.04 -0.01,0.01 -0.03,0.01 -0.05,0.01l-0.35 0c-0.03,0 -0.05,-0.01 -0.06,-0.02 -0.01,-0.01 -0.02,-0.03 -0.02,-0.06l0 -0.47c0,-0.02 0.01,-0.04 0.01,-0.05 0.01,-0.01 0.02,-0.02 0.03,-0.03 0.01,0 0.02,0 0.04,0l0.34 0c0.02,0 0.04,0 0.05,0.01 0.01,0.01 0.01,0.02 0.01,0.04 0,0.01 0,0.02 -0.01,0.03 -0.01,0.01 -0.03,0.02 -0.05,0.02z"/>
  <path class="fil3" d="M3.04 4.98l-0.12 0 0 0.18 0.12 0c0.03,0 0.06,-0.01 0.08,-0.01 0.02,-0.01 0.03,-0.02 0.05,-0.03 0.01,-0.01 0.01,-0.03 0.01,-0.05 0,-0.02 0,-0.03 -0.01,-0.05 -0.01,-0.01 -0.02,-0.02 -0.04,-0.03 -0.01,0 -0.04,-0.01 -0.09,-0.01zm-0.07 0.27l-0.05 0 0 0.2c0,0.03 0,0.05 -0.01,0.06 -0.02,0.02 -0.03,0.02 -0.05,0.02 -0.02,0 -0.04,-0.01 -0.05,-0.02 -0.01,-0.01 -0.01,-0.03 -0.01,-0.06l0 -0.48c0,-0.03 0,-0.05 0.01,-0.07 0.02,-0.01 0.04,-0.01 0.06,-0.01l0.21 0c0.03,0 0.06,0 0.08,0 0.02,0 0.04,0.01 0.05,0.01 0.02,0.01 0.04,0.03 0.06,0.04 0.01,0.02 0.02,0.03 0.03,0.06 0.01,0.02 0.01,0.04 0.01,0.06 0,0.05 -0.01,0.09 -0.04,0.11 -0.02,0.03 -0.07,0.05 -0.12,0.06 0.02,0.02 0.05,0.03 0.07,0.06 0.02,0.02 0.04,0.05 0.05,0.07 0.02,0.03 0.03,0.05 0.04,0.08 0.01,0.02 0.01,0.03 0.01,0.04 0,0.01 0,0.02 0,0.02 -0.01,0.01 -0.02,0.02 -0.03,0.02 -0.01,0.01 -0.02,0.01 -0.03,0.01 -0.01,0 -0.03,0 -0.03,-0.01 -0.01,-0.01 -0.02,-0.01 -0.03,-0.02 -0.01,-0.01 -0.02,-0.03 -0.03,-0.05l-0.05 -0.09c-0.02,-0.03 -0.04,-0.05 -0.05,-0.07 -0.01,-0.01 -0.03,-0.03 -0.04,-0.03 -0.02,-0.01 -0.04,-0.01 -0.06,-0.01z"/>
  <path class="fil3" d="M3.85 4.98l-0.08 0 0 0.2 0.08 0c0.03,0 0.06,-0.01 0.08,-0.01 0.02,-0.01 0.03,-0.02 0.05,-0.03 0.01,-0.02 0.01,-0.04 0.01,-0.06 0,-0.03 -0.01,-0.05 -0.02,-0.07 -0.02,-0.02 -0.06,-0.03 -0.12,-0.03zm0.03 0.29l-0.11 0 0 0.18c0,0.03 -0.01,0.05 -0.02,0.06 -0.01,0.01 -0.03,0.02 -0.05,0.02 -0.02,0 -0.03,-0.01 -0.04,-0.02 -0.02,-0.01 -0.02,-0.03 -0.02,-0.06l0 -0.48c0,-0.03 0,-0.05 0.02,-0.07 0.01,-0.01 0.03,-0.01 0.06,-0.01l0.16 0c0.05,0 0.09,0 0.12,0.01 0.02,0 0.04,0.02 0.06,0.03 0.02,0.02 0.04,0.04 0.05,0.07 0.01,0.02 0.01,0.05 0.01,0.08 0,0.06 -0.02,0.11 -0.06,0.14 -0.04,0.04 -0.1,0.05 -0.18,0.05z"/>
  <path class="fil3" d="M4.28 5.27l0.19 0 -0.09 -0.26 -0.1 0.26zm0.26 0.18l-0.03 -0.08 -0.26 0 -0.03 0.08c-0.01,0.03 -0.02,0.05 -0.03,0.06 -0.01,0.02 -0.02,0.02 -0.04,0.02 -0.02,0 -0.03,0 -0.04,-0.02 -0.02,-0.01 -0.02,-0.02 -0.02,-0.04 0,-0.01 0,-0.01 0,-0.02 0,-0.01 0.01,-0.03 0.02,-0.04l0.16 -0.41c0,-0.02 0.01,-0.03 0.02,-0.05 0,-0.01 0.01,-0.03 0.02,-0.04 0,-0.01 0.01,-0.02 0.02,-0.02 0.02,-0.01 0.03,-0.01 0.05,-0.01 0.02,0 0.03,0 0.04,0.01 0.02,0 0.03,0.01 0.03,0.02 0.01,0.01 0.02,0.02 0.02,0.04 0.01,0.01 0.01,0.02 0.02,0.05l0.17 0.4c0.01,0.04 0.02,0.06 0.02,0.07 0,0.02 -0.01,0.03 -0.02,0.04 -0.01,0.02 -0.03,0.02 -0.05,0.02 -0.01,0 -0.02,0 -0.02,0 -0.01,-0.01 -0.02,-0.01 -0.02,-0.02 -0.01,0 -0.01,-0.01 -0.02,-0.03 0,-0.01 -0.01,-0.02 -0.01,-0.03z"/>
  <path class="fil3" d="M5 4.98l-0.12 0 0 0.18 0.12 0c0.03,0 0.05,-0.01 0.07,-0.01 0.02,-0.01 0.04,-0.02 0.05,-0.03 0.01,-0.01 0.02,-0.03 0.02,-0.05 0,-0.02 -0.01,-0.03 -0.02,-0.05 0,-0.01 -0.02,-0.02 -0.03,-0.03 -0.02,0 -0.05,-0.01 -0.09,-0.01zm-0.07 0.27l-0.05 0 0 0.2c0,0.03 -0.01,0.05 -0.02,0.06 -0.01,0.02 -0.02,0.02 -0.04,0.02 -0.02,0 -0.04,-0.01 -0.05,-0.02 -0.01,-0.01 -0.02,-0.03 -0.02,-0.06l0 -0.48c0,-0.03 0.01,-0.05 0.02,-0.07 0.01,-0.01 0.03,-0.01 0.06,-0.01l0.21 0c0.03,0 0.05,0 0.07,0 0.02,0 0.04,0.01 0.06,0.01 0.02,0.01 0.04,0.03 0.05,0.04 0.02,0.02 0.03,0.03 0.04,0.06 0,0.02 0.01,0.04 0.01,0.06 0,0.05 -0.01,0.09 -0.04,0.11 -0.03,0.03 -0.07,0.05 -0.12,0.06 0.02,0.02 0.04,0.03 0.06,0.06 0.02,0.02 0.04,0.05 0.06,0.07 0.01,0.03 0.03,0.05 0.04,0.08 0.01,0.02 0.01,0.03 0.01,0.04 0,0.01 0,0.02 -0.01,0.02 0,0.01 -0.01,0.02 -0.02,0.02 -0.01,0.01 -0.02,0.01 -0.03,0.01 -0.02,0 -0.03,0 -0.04,-0.01 -0.01,-0.01 -0.02,-0.01 -0.02,-0.02 -0.01,-0.01 -0.02,-0.03 -0.03,-0.05l-0.05 -0.09c-0.02,-0.03 -0.04,-0.05 -0.05,-0.07 -0.02,-0.01 -0.03,-0.03 -0.05,-0.03 -0.01,-0.01 -0.03,-0.01 -0.05,-0.01z"/>
  <path class="fil3" d="M5.5 4.95l0 0.23 0.25 -0.27c0.02,-0.01 0.03,-0.02 0.03,-0.03 0.01,0 0.02,0 0.04,0 0.02,0 0.03,0 0.04,0.01 0.02,0.01 0.02,0.03 0.02,0.04 0,0.02 -0.01,0.04 -0.03,0.06l-0.15 0.15 0.18 0.25c0.01,0.02 0.02,0.04 0.02,0.05 0.01,0.01 0.01,0.03 0.01,0.04 0,0.01 0,0.03 -0.01,0.04 -0.01,0.01 -0.03,0.01 -0.05,0.01 -0.02,0 -0.03,0 -0.04,-0.01 -0.01,-0.01 -0.02,-0.02 -0.03,-0.03 -0.01,-0.01 -0.02,-0.02 -0.02,-0.04l-0.15 -0.23 -0.11 0.1 0 0.13c0,0.03 0,0.05 -0.02,0.06 -0.01,0.02 -0.02,0.02 -0.04,0.02 -0.01,0 -0.02,0 -0.03,-0.01 -0.01,0 -0.02,-0.01 -0.03,-0.02 0,-0.01 0,-0.02 -0.01,-0.03 0,-0.01 0,-0.02 0,-0.04l0 -0.48c0,-0.02 0.01,-0.04 0.02,-0.05 0.01,-0.02 0.03,-0.02 0.05,-0.02 0.02,0 0.03,0 0.04,0.01 0.02,0.02 0.02,0.04 0.02,0.06z"/>
  <path class="fil2" d="M3.66 2.87c-0.06,0 -0.12,-0.02 -0.17,-0.06 -0.06,-0.05 -0.1,-0.14 -0.12,-0.26 -0.04,0.09 -0.09,0.16 -0.15,0.22 -0.06,0.06 -0.13,0.09 -0.22,0.09 -0.14,-0.02 -0.24,-0.08 -0.31,-0.19 -0.07,-0.11 -0.12,-0.24 -0.14,-0.4 -0.01,-0.1 -0.02,-0.2 -0.02,-0.3 0,-0.06 0,-0.11 0.01,-0.16 0.01,-0.16 0.03,-0.29 0.05,-0.39l0.46 0.02c-0.01,0.05 -0.02,0.12 -0.03,0.22 -0.01,0.08 -0.01,0.15 -0.01,0.23l0 0.08c0,0.11 0.01,0.2 0.03,0.28 0.01,0.08 0.04,0.11 0.07,0.11 0.03,0 0.06,-0.02 0.09,-0.07 0.02,-0.04 0.05,-0.1 0.06,-0.17 0.02,-0.07 0.04,-0.14 0.05,-0.21 0,-0.05 0.01,-0.1 0.01,-0.14l-0.02 -0.34 0.54 -0.01 -0.04 0.84 0 0.02c0,0.08 0.02,0.13 0.06,0.14l0.01 0c0.04,0 0.08,-0.03 0.13,-0.08 0.05,-0.07 0.08,-0.15 0.11,-0.26 0,-0.01 0.01,-0.02 0.02,-0.02l0 0c0.01,0.01 0.02,0.01 0.02,0.03 0.01,0.03 0.02,0.07 0.02,0.11 0,0.07 -0.02,0.16 -0.05,0.25 -0.05,0.15 -0.12,0.26 -0.21,0.33 -0.07,0.05 -0.14,0.08 -0.22,0.09l-0.03 0z"/>
  <path class="fil2" d="M1.34 1.77l0 -0.01 -0.04 -0.71 0 0c-0.02,-0.46 0.15,-0.54 0.44,-0.55 0.06,0 0.13,0 0.21,0.01 0.06,0 0.12,0 0.19,0 0.03,0 0.05,0 0.08,0 0.1,0 0.21,0 0.31,0l0.03 0 0 0.02 -0.02 0.48 0 0.02 -0.02 0 -0.59 0.01 0 0.37 0.48 -0.03 0.02 0 0 0.02 -0.01 0.45 0 0.02 -0.03 0 -0.48 -0.02 -0.02 0.42c-0.01,0.09 -0.02,0.19 -0.03,0.27 -0.01,0.07 -0.02,0.13 -0.04,0.17 -0.03,0.04 -0.05,0.08 -0.09,0.11 -0.04,0.03 -0.08,0.05 -0.13,0.06 -0.03,0.01 -0.05,0.01 -0.08,0.01 -0.04,0.01 -0.07,0.01 -0.11,0.01l-0.02 0.01 -0.01 -0.03c0,-0.14 -0.01,-0.29 -0.01,-0.44 -0.01,-0.25 -0.02,-0.44 -0.03,-0.67z"/>
  <path class="fil2" d="M4.91 2.65c0.01,-0.14 0.08,-0.59 -0.04,-0.71 -0.26,-0.28 -0.32,0.56 -0.26,0.83l-0.52 0.07 -0.03 -1.42 0.64 -0.02 0 0.18c0.06,-0.07 0.16,-0.18 0.27,-0.18 0.13,0.01 0.22,0.06 0.29,0.14 0.25,0.27 0.06,0.8 0.16,1.11l-0.51 0z"/>
  <path class="fil0" d="M5.89 2.33c0.02,-0.01 0.03,-0.03 0.04,-0.05 0.18,-0.33 0.32,-0.51 0.43,-0.55 0.06,-0.01 0.1,0 0.13,0.05 0.02,0.03 0.02,0.08 0,0.14 -0.14,0.34 -0.16,0.6 -0.04,0.79 0.03,0.06 0.09,0.11 0.17,0.15 0.04,0.02 0.06,0.04 0.07,0.05 0.01,0.01 0.01,0.03 0,0.05 -0.01,0.02 -0.03,0.03 -0.06,0.04 -0.06,0.02 -0.13,0.01 -0.21,-0.03 -0.07,-0.04 -0.14,-0.1 -0.18,-0.18 -0.09,-0.15 -0.12,-0.34 -0.07,-0.57 -0.15,0.16 -0.24,0.4 -0.27,0.7 -0.01,0.07 -0.04,0.11 -0.09,0.13 -0.03,0.01 -0.05,0.01 -0.08,0 -0.03,-0.01 -0.05,-0.02 -0.07,-0.05 -0.03,-0.06 -0.03,-0.24 0,-0.56 0.01,-0.16 0.03,-0.29 0.05,-0.37 0.02,-0.08 0.05,-0.12 0.1,-0.14 0.02,0 0.04,0 0.07,0 0.03,0.01 0.05,0.03 0.06,0.05 0.01,0.02 0.01,0.06 0,0.12 -0.03,0.09 -0.04,0.17 -0.05,0.23z"/>
  <path class="fil0" d="M6.76 1.7c0.02,0 0.03,0 0.05,0.01 0.01,0.01 0.01,0.02 0.02,0.03 0,0.01 -0.01,0.03 -0.04,0.06 -0.07,0.08 -0.1,0.18 -0.09,0.28 0,0.02 0,0.03 -0.02,0.05 -0.01,0.01 -0.03,0.01 -0.04,0.01 -0.04,0.01 -0.07,-0.01 -0.08,-0.05 -0.02,-0.06 0,-0.14 0.05,-0.24 0.02,-0.04 0.05,-0.08 0.09,-0.11 0.02,-0.03 0.04,-0.04 0.06,-0.04z"/>
  <path class="fil1" d="M6.67 4.06c0,0.01 0,0.01 0,0.02 0,-0.01 0,-0.01 0,-0.02 -0.02,0.04 -0.04,0.08 -0.07,0.12 -0.12,0.21 -0.27,0.37 -0.45,0.51 -0.01,0.01 -0.03,0.03 -0.05,0.04 -0.03,0.02 -0.08,0.08 -0.02,0.05 0.2,-0.12 0.4,-0.27 0.57,-0.47 0.24,-0.28 0.4,-0.66 0.4,-1.05 0,-0.3 -0.26,-0.38 -0.24,0.09 0.02,0.25 -0.02,0.44 -0.14,0.71z"/>
  <path class="fil0" d="M5.24 4.8c-0.05,0 -0.1,-0.02 -0.15,-0.04 -0.07,-0.03 -0.12,-0.1 -0.16,-0.2 -0.11,0.1 -0.23,0.15 -0.37,0.15 -0.12,0 -0.22,-0.03 -0.31,-0.1 -0.09,-0.07 -0.16,-0.17 -0.21,-0.29 -0.05,-0.11 -0.07,-0.24 -0.07,-0.38 0,-0.15 0.02,-0.28 0.07,-0.39 0.05,-0.12 0.12,-0.21 0.21,-0.28 0.09,-0.07 0.19,-0.11 0.31,-0.11 0.09,0 0.19,0.03 0.27,0.08l0 -0.08c0,-0.2 -0.01,-0.31 -0.01,-0.45l0.65 0c-0.01,0.14 -0.02,0.23 -0.03,0.4 -0.01,0.19 -0.02,0.38 -0.03,0.57 -0.01,0.09 -0.01,0.17 -0.01,0.25 0,0.09 0,0.17 0.01,0.24 0.01,0.09 0.03,0.13 0.08,0.13l0.01 0c0.05,0 0.1,-0.04 0.15,-0.11 0.06,-0.06 0.1,-0.15 0.12,-0.27 0.01,-0.01 0.01,-0.02 0.02,-0.02l0.01 0.01c0.01,0 0.02,0.01 0.03,0.02 0.01,0.04 0.01,0.08 0.01,0.13 0,0.08 -0.02,0.17 -0.06,0.27 -0.06,0.16 -0.14,0.28 -0.25,0.37 -0.07,0.05 -0.14,0.08 -0.22,0.09 -0.02,0.01 -0.05,0.01 -0.07,0.01zm-0.59 -0.48c0.05,0 0.09,-0.02 0.12,-0.05 0.02,-0.03 0.04,-0.08 0.06,-0.13 0.01,-0.06 0.01,-0.12 0.01,-0.18 0,-0.07 0,-0.13 -0.01,-0.18 -0.01,-0.06 -0.03,-0.1 -0.06,-0.13 -0.02,-0.03 -0.06,-0.05 -0.11,-0.05 -0.04,0 -0.08,0.02 -0.11,0.07 -0.03,0.05 -0.05,0.11 -0.06,0.18 0,0.04 -0.01,0.08 -0.01,0.12 0,0.03 0.01,0.06 0.01,0.09 0.01,0.07 0.02,0.13 0.05,0.18 0.03,0.05 0.07,0.08 0.11,0.08z"/>
  <path class="fil4" d="M7.6 1.57c0,-0.16 -0.15,-0.4 -0.24,-0.54 -0.02,-0.03 -0.04,-0.06 -0.06,-0.09 -0.27,-0.41 -0.61,-0.66 -0.88,-0.85 -0.08,-0.05 -0.03,-0.12 0.08,-0.08 0.41,0.14 0.95,0.67 1.18,0.99 0.68,0.91 0.78,1.93 0.35,2.93 -0.3,0.65 -1.1,1.4 -1.74,1.68 -0.05,0.02 -0.1,0.04 -0.15,0.06 -0.03,0.01 -0.06,0.03 -0.08,0 -0.01,-0.03 0.03,-0.04 0.05,-0.05 0.89,-0.56 1.77,-1.8 1.66,-2.87 -0.02,-0.14 -0.08,-0.37 -0.1,-0.07 -0.01,0.11 -0.02,0.21 -0.04,0.31 -0.03,0.19 -0.07,0.37 -0.12,0.55 -0.17,0.53 -0.55,1.17 -1.3,1.62 -0.01,0.01 -0.03,0.01 -0.04,-0.01 -0.01,-0.02 -0.01,-0.03 0.01,-0.04 0.55,-0.42 0.98,-1.01 1.1,-1.89 0.14,-1.09 -0.43,-2.23 -1.4,-2.73 -0.81,-0.41 -1.38,-0.29 -1.7,-0.25 -0.24,0.02 0.61,-0.33 1.52,-0.12 0.4,0.1 0.79,0.25 1.15,0.59 0.15,0.14 0.28,0.3 0.4,0.46 0.05,0.06 0.17,0.25 0.27,0.4 0.04,0.06 0.09,0.16 0.08,0z"/>
 </g>
</svg>
